# xmcd
#
# Track frame offsets: 
#        150
#        13305
#        29126
#        38201
#        47301
#        61371
#        77010
#        92470
#        108371
#        125110
#        142695
#        161531
#
# Disc length: 2371 seconds
#
# Revision: 3
# Processed by: cddbd v1.5.2PL0 Copyright (c) Steve Scherf et al.
# Submitted via: ExactAudioCopy v1.3
#
DISCID=9609410c
DTITLE=John Renbourn - The Guitar Of John Renbourn
DYEAR=1977
DGENRE=Folk
TTITLE0=Swallow Flight
TTITLE1=Light Traveller
TTITLE2=Reflections (1)
TTITLE3=Reflections (2)
TTITLE4=Freedom Road
TTITLE5=Introspection
TTITLE6=Passing Time
TTITLE7=Portrait Of A Village
TTITLE8=Summer Song
TTITLE9=Glastonbury
TTITLE10=Little Hands
TTITLE11=Deserted Streets
EXTD=
EXTT0=
EXTT1=
EXTT2=
EXTT3=
EXTT4=
EXTT5=
EXTT6=
EXTT7=
EXTT8=
EXTT9=
EXTT10=
EXTT11=
PLAYORDER=
